<svg width="38" height="33" viewBox="0 0 38 33" fill="none" xmlns="http://www.w3.org/2000/svg">
<path d="M19 14.5679C20.7578 14.5679 22.7266 15.4116 24.9766 17.0288C27.0156 18.5757 28.7734 20.4038 30.25 22.5835C31.7266 24.8335 32.5 26.8726 32.5 28.6304C32.5 29.896 32.0078 30.8101 31.1641 31.5132C30.25 32.2163 28.9844 32.5679 27.4375 32.5679C26.5938 32.5679 25.8203 32.4976 24.9766 32.2866C24.4141 32.146 23.7109 31.9351 22.7969 31.6538L20.8984 31.021C20.1953 30.8804 19.5625 30.8101 19 30.8101C18.4375 30.8101 17.8047 30.8804 17.1016 31.021C16.6797 31.1616 16.0469 31.3726 15.2734 31.5835C14.2891 31.9351 13.5156 32.146 13.0234 32.2866C12.1797 32.4976 11.3359 32.5679 10.5625 32.5679C8.94531 32.5679 7.67969 32.2163 6.83594 31.5132C5.92188 30.8101 5.5 29.896 5.5 28.6304C5.5 26.8726 6.20312 24.8335 7.75 22.5835C9.15625 20.4038 10.9141 18.5757 13.0234 17.0288C15.2031 15.4116 17.1719 14.5679 19 14.5679ZM8.66406 13.6538C9.01562 14.9194 8.94531 16.0444 8.52344 17.0991C8.03125 18.1538 7.25781 18.7866 6.27344 18.9976C5.21875 19.2788 4.23438 19.0679 3.25 18.3647C2.26562 17.6616 1.5625 16.7476 1.21094 15.4819C0.789062 14.2866 0.859375 13.1616 1.35156 12.1069C1.77344 11.0522 2.54688 10.4194 3.60156 10.1382C4.58594 9.92725 5.64062 10.1382 6.625 10.8413C7.60938 11.5444 8.24219 12.4585 8.66406 13.6538ZM14.5703 12.2476C13.4453 12.5288 12.3906 12.2476 11.3359 11.3335C10.2812 10.4897 9.57812 9.29443 9.15625 7.74756C8.73438 6.20068 8.73438 4.79443 9.22656 3.52881C9.64844 2.26318 10.4219 1.41943 11.5469 1.13818C12.6719 0.856934 13.7266 1.2085 14.7812 2.05225C15.8359 2.96631 16.6094 4.16162 17.0312 5.7085C17.4531 7.25537 17.3828 8.66162 16.9609 9.92725C16.4688 11.1929 15.6953 11.9663 14.5703 12.2476ZM34.3984 10.1382C35.3828 10.4194 36.1562 11.0522 36.6484 12.1069C37.0703 13.1616 37.1406 14.2866 36.7891 15.4819C36.3672 16.7476 35.7344 17.6616 34.75 18.3647C33.7656 19.0679 32.7109 19.2788 31.7266 18.9976C30.6719 18.7866 29.8984 18.1538 29.4766 17.0991C28.9844 16.0444 28.9141 14.9194 29.3359 13.6538C29.6875 12.4585 30.3906 11.5444 31.375 10.8413C32.3594 10.1382 33.3438 9.92725 34.3984 10.1382ZM23.4297 12.2476C22.3047 11.9663 21.4609 11.1929 21.0391 9.92725C20.5469 8.66162 20.5469 7.25537 20.9688 5.7085C21.3906 4.16162 22.0938 2.96631 23.1484 2.05225C24.2031 1.2085 25.2578 0.856934 26.3828 1.13818C27.5078 1.41943 28.2812 2.26318 28.7734 3.52881C29.1953 4.79443 29.2656 6.20068 28.8438 7.74756C28.4219 9.29443 27.6484 10.4897 26.5938 11.3335C25.5391 12.2476 24.4844 12.5288 23.4297 12.2476Z" fill="#C4E4F7"/>
</svg>
