<svg width="54" height="49" viewBox="0 0 54 49" fill="none" xmlns="http://www.w3.org/2000/svg">
<g clip-path="url(#clip0_869_12999)">
<path d="M38.6977 21.3179V6.31787C38.6977 3.03662 36 0.317871 32.7442 0.317871H5.95349C2.69767 0.317871 0 3.03662 0 6.31787V21.3179C0 24.5991 2.69767 27.3179 5.95349 27.3179V32.3804C5.95349 32.9429 6.4186 33.3179 6.88372 33.3179C7.06977 33.3179 7.25581 33.2241 7.34884 33.1304L15.0698 27.3179H32.7442C36 27.3179 38.6977 24.5991 38.6977 21.3179ZM14.6047 25.8179L14.2326 26.0991L7.44186 31.2554V25.8179H5.95349C3.53488 25.8179 1.48837 23.7554 1.48837 21.3179V6.31787C1.48837 3.88037 3.53488 1.81787 5.95349 1.81787H32.7442C35.1628 1.81787 37.2093 3.88037 37.2093 6.31787V21.3179C37.2093 23.7554 35.2558 25.8179 32.7442 25.8179H14.6047ZM47.6279 15.3179H43.907C43.5349 15.3179 43.1628 15.6929 43.1628 16.0679C43.1628 16.4429 43.5349 16.8179 43.907 16.8179H47.6279C50.0465 16.8179 52.093 18.8804 52.093 21.3179V36.3179C52.093 38.7554 50.0465 40.8179 47.6279 40.8179H43.1628V46.2554L36.3721 41.0991L36 40.8179H23.814C21.3953 40.8179 19.3488 38.7554 19.3488 36.3179V32.5679C19.3488 32.1929 18.9767 31.8179 18.6047 31.8179C18.2326 31.8179 17.8605 32.1929 17.8605 32.5679V36.3179C17.8605 39.5991 20.5581 42.3179 23.814 42.3179H35.5349L43.2558 48.1304C43.3488 48.2241 43.5349 48.3179 43.7209 48.3179C44.186 48.3179 44.6512 47.9429 44.6512 47.3804V42.3179H47.6279C50.8837 42.3179 53.5814 39.5991 53.5814 36.3179V21.3179C53.5814 18.0366 50.8837 15.3179 47.6279 15.3179Z" fill="#008CDD"/>
</g>
<defs>
<clipPath id="clip0_869_12999">
<rect width="53.5814" height="48" fill="white" transform="translate(0 0.317871)"/>
</clipPath>
</defs>
</svg>
