<svg width="38" height="44" viewBox="0 0 38 44" fill="none" xmlns="http://www.w3.org/2000/svg">
<path d="M36.574 42.1236H34.6213V4.11733C34.6213 2.2837 33.1568 0.783447 31.3668 0.783447H6.63253C4.84255 0.783447 3.37802 2.2837 3.37802 4.11733V42.1236H1.42532C1.09986 42.1236 0.774414 42.457 0.774414 42.7904C0.774414 43.1238 1.09986 43.4572 1.42532 43.4572H15.7452C16.0706 43.4572 16.3961 43.1238 16.3961 42.7904V34.7891C16.3961 34.4557 16.7215 34.1223 17.047 34.1223H20.9524C21.2778 34.1223 21.6033 34.4557 21.6033 34.7891V42.7904C21.6033 43.1238 21.9287 43.4572 22.2542 43.4572H36.574C36.8995 43.4572 37.2249 43.1238 37.2249 42.7904C37.2249 42.457 36.8995 42.1236 36.574 42.1236ZM33.3195 42.1236H22.9051V34.7891C22.9051 33.7056 22.0101 32.7888 20.9524 32.7888H17.047C15.9892 32.7888 15.0943 33.7056 15.0943 34.7891V42.1236H4.67982V4.11733C4.67982 3.03382 5.57481 2.117 6.63253 2.117H31.3668C32.4245 2.117 33.3195 3.03382 33.3195 4.11733V42.1236ZM28.4377 21.4535H25.1832C24.2882 21.4535 23.556 22.2037 23.556 23.1205V26.4544C23.556 27.3712 24.2882 28.1213 25.1832 28.1213H28.4377C29.3327 28.1213 30.065 27.3712 30.065 26.4544V23.1205C30.065 22.2037 29.3327 21.4535 28.4377 21.4535ZM28.7632 26.4544C28.7632 26.6211 28.6005 26.7878 28.4377 26.7878H25.1832C25.0205 26.7878 24.8578 26.6211 24.8578 26.4544V23.1205C24.8578 22.9538 25.0205 22.7871 25.1832 22.7871H28.4377C28.6005 22.7871 28.7632 22.9538 28.7632 23.1205V26.4544ZM12.8161 21.4535H9.56159C8.6666 21.4535 7.93433 22.2037 7.93433 23.1205V26.4544C7.93433 27.3712 8.6666 28.1213 9.56159 28.1213H12.8161C13.7111 28.1213 14.4433 27.3712 14.4433 26.4544V23.1205C14.4433 22.2037 13.7111 21.4535 12.8161 21.4535ZM13.1415 26.4544C13.1415 26.6211 12.9788 26.7878 12.8161 26.7878H9.56159C9.39886 26.7878 9.23614 26.6211 9.23614 26.4544V23.1205C9.23614 22.9538 9.39886 22.7871 9.56159 22.7871H12.8161C12.9788 22.7871 13.1415 22.9538 13.1415 23.1205V26.4544ZM24.8578 12.7854V10.1183C24.8578 9.36821 24.2882 8.78477 23.556 8.78477H21.6033V6.78444C21.6033 6.03432 21.0337 5.45089 20.3015 5.45089H17.6979C16.9656 5.45089 16.3961 6.03432 16.3961 6.78444V8.78477H14.4433C13.7111 8.78477 13.1415 9.36821 13.1415 10.1183V12.7854C13.1415 13.5356 13.7111 14.119 14.4433 14.119H16.3961V16.1193C16.3961 16.8694 16.9656 17.4529 17.6979 17.4529H20.3015C21.0337 17.4529 21.6033 16.8694 21.6033 16.1193V14.119H23.556C24.2882 14.119 24.8578 13.5356 24.8578 12.7854ZM23.556 12.7854H20.3015V16.1193H17.6979V12.7854H14.4433V10.1183H17.6979V6.78444H20.3015V10.1183H23.556V12.7854ZM20.6269 21.4535H17.3724C16.4774 21.4535 15.7452 22.2037 15.7452 23.1205V26.4544C15.7452 27.3712 16.4774 28.1213 17.3724 28.1213H20.6269C21.5219 28.1213 22.2542 27.3712 22.2542 26.4544V23.1205C22.2542 22.2037 21.5219 21.4535 20.6269 21.4535ZM20.9524 26.4544C20.9524 26.6211 20.7896 26.7878 20.6269 26.7878H17.3724C17.2097 26.7878 17.047 26.6211 17.047 26.4544V23.1205C17.047 22.9538 17.2097 22.7871 17.3724 22.7871H20.6269C20.7896 22.7871 20.9524 22.9538 20.9524 23.1205V26.4544Z" fill="#008CDD"/>
</svg>
