<svg width="58" height="46" viewBox="0 0 58 46" fill="none" xmlns="http://www.w3.org/2000/svg">
<g clip-path="url(#clip0_869_12990)">
<path d="M51.468 33.5801C51.1051 33.5801 50.7422 33.2141 50.7422 32.848V8.68729C50.7422 7.03997 49.4721 5.75872 47.8391 5.75872H10.0988C8.46576 5.75872 7.19565 7.03997 7.19565 8.68729V32.848C7.19565 33.2141 6.83277 33.5801 6.46988 33.5801C6.10699 33.5801 5.7441 33.2141 5.7441 32.848V8.68729C5.7441 6.30783 7.73999 4.29443 10.0988 4.29443H47.8391C50.1979 4.29443 52.1938 6.30783 52.1938 8.68729V32.848C52.1938 33.2141 51.8309 33.5801 51.468 33.5801ZM1.38944 36.5087H56.5484C57.3649 36.5087 58 37.1493 58 37.973V39.4373C58 42.6404 55.3691 45.2944 52.1938 45.2944H5.7441C2.56883 45.2944 -0.0621109 42.6404 -0.0621109 39.4373V37.973C-0.0621109 37.1493 0.572945 36.5087 1.38944 36.5087ZM1.38944 39.4373C1.38944 41.8168 3.38533 43.8301 5.7441 43.8301H52.1938C54.5526 43.8301 56.5484 41.8168 56.5484 39.4373V37.973H1.38944V39.4373ZM30.4205 29.9194H27.5174C26.338 29.9194 25.3401 28.9127 25.3401 27.723V24.0623H21.7112C20.5318 24.0623 19.5339 23.0556 19.5339 21.8659V18.9373C19.5339 17.7476 20.5318 16.7409 21.7112 16.7409H25.3401V13.0801C25.3401 11.8904 26.338 10.8837 27.5174 10.8837H30.4205C31.5999 10.8837 32.5978 11.8904 32.5978 13.0801V16.7409H36.2267C37.4061 16.7409 38.404 17.7476 38.404 18.9373V21.8659C38.404 23.0556 37.4061 24.0623 36.2267 24.0623H32.5978V27.723C32.5978 28.9127 31.5999 29.9194 30.4205 29.9194ZM36.2267 22.598C36.5896 22.598 36.9525 22.2319 36.9525 21.8659V18.9373C36.9525 18.5712 36.5896 18.2051 36.2267 18.2051H31.1463V13.0801C31.1463 12.7141 30.7834 12.348 30.4205 12.348H27.5174C27.1545 12.348 26.7916 12.7141 26.7916 13.0801V18.2051H21.7112C21.3483 18.2051 20.9854 18.5712 20.9854 18.9373V21.8659C20.9854 22.2319 21.3483 22.598 21.7112 22.598H26.7916V27.723C26.7916 28.0891 27.1545 28.4551 27.5174 28.4551H30.4205C30.7834 28.4551 31.1463 28.0891 31.1463 27.723V22.598H36.2267Z" fill="#008CDD"/>
</g>
<defs>
<clipPath id="clip0_869_12990">
<rect width="58" height="45" fill="white" transform="matrix(-1 0 0 1 58 0.317871)"/>
</clipPath>
</defs>
</svg>
