<svg width="43" height="49" viewBox="0 0 43 49" fill="none" xmlns="http://www.w3.org/2000/svg">
<g clip-path="url(#clip0_869_12980)">
<path d="M21.1034 24.3179C27.7925 24.3179 33.1626 18.9741 33.1626 12.3179C33.1626 5.66162 27.7925 0.317871 21.1034 0.317871C14.4144 0.317871 9.04434 5.66162 9.04434 12.3179C9.04434 18.9741 14.4144 24.3179 21.1034 24.3179ZM21.1034 1.81787C26.9446 1.81787 31.6552 6.50537 31.6552 12.3179C31.6552 18.1304 26.9446 22.8179 21.1034 22.8179C15.2623 22.8179 10.5517 18.1304 10.5517 12.3179C10.5517 6.50537 15.2623 1.81787 21.1034 1.81787ZM25.7198 28.8179H16.4871C7.44273 28.8179 0 35.8491 0 44.5679C0 46.6304 1.79002 48.3179 3.86268 48.3179H38.3442C40.4169 48.3179 42.2069 46.6304 42.2069 44.5679C42.2069 35.8491 34.7642 28.8179 25.7198 28.8179ZM38.3442 46.8179H3.86268C2.54372 46.8179 1.50739 45.7866 1.50739 44.5679C1.50739 37.9116 6.31219 32.3804 12.8128 30.7866V34.9116C10.6459 35.2866 9.04434 37.0679 9.04434 39.3179C9.04434 41.7554 11.117 43.8179 13.5665 43.8179C16.016 43.8179 18.0887 41.7554 18.0887 39.3179C18.0887 37.0679 16.4871 35.2866 14.3202 34.9116V30.5054C15.0739 30.4116 15.7334 30.3179 16.4871 30.3179H25.7198C26.4735 30.3179 27.133 30.4116 27.8867 30.5054V34.9116C25.343 35.2866 23.3645 37.4429 23.3645 40.0679V42.3179C23.3645 42.5991 23.553 42.8804 23.7414 42.9741L25.2488 43.7241C25.6256 43.9116 26.0967 43.8179 26.2851 43.4429C26.4735 43.0679 26.3793 42.5991 26.0025 42.4116L24.8719 41.8491V40.0679C24.8719 38.0054 26.5677 36.3179 28.6404 36.3179C30.7131 36.3179 32.4089 38.0054 32.4089 40.0679V41.8491L31.2783 42.4116C30.9015 42.5991 30.8073 43.0679 30.9957 43.4429C31.0899 43.6304 31.3725 43.8179 31.6552 43.8179C31.7494 43.8179 31.8436 43.8179 32.032 43.7241L33.5394 42.9741C33.7278 42.8804 33.9163 42.5991 33.9163 42.3179V40.0679C33.9163 37.4429 31.9378 35.2866 29.3941 34.9116V30.7866C35.8947 32.3804 40.6995 37.9116 40.6995 44.5679C40.6995 45.7866 39.6632 46.8179 38.3442 46.8179ZM13.5665 36.3179C15.2623 36.3179 16.5813 37.6304 16.5813 39.3179C16.5813 41.0054 15.2623 42.3179 13.5665 42.3179C11.8707 42.3179 10.5517 41.0054 10.5517 39.3179C10.5517 37.6304 11.8707 36.3179 13.5665 36.3179Z" fill="#008CDD"/>
</g>
<defs>
<clipPath id="clip0_869_12980">
<rect width="42.2069" height="48" fill="white" transform="translate(0 0.317871)"/>
</clipPath>
</defs>
</svg>
