<svg width="66" height="64" viewBox="0 0 66 64" fill="none" xmlns="http://www.w3.org/2000/svg">
<rect width="65.0159" height="64" fill="white"/>
<path d="M11.0026 48.4509C10.7687 48.1658 10.4724 47.9366 10.1361 47.7808C9.79974 47.6249 9.43208 47.5463 9.06066 47.551H4.57262V56.7958H5.94611C6.86461 56.7958 7.32434 56.3972 7.32529 55.6V49.3819H8.11319C8.89112 49.3819 9.28435 49.7326 9.28435 50.4424C9.28435 50.9227 9.09913 51.2368 8.73724 51.3945C8.55776 51.4589 8.40215 51.5754 8.29079 51.7287C8.17944 51.882 8.11753 52.065 8.11319 52.2536V53.693H8.72584C9.13307 53.706 9.53815 53.6298 9.91207 53.4698C10.286 53.3098 10.6195 53.0701 10.8886 52.7677C11.4342 52.1705 11.7416 51.3977 11.7535 50.5931C11.7884 49.8106 11.5198 49.0444 11.0026 48.4509Z" fill="#283A97"/>
<path d="M19.0483 49.7058C19.7607 49.7058 20.1155 49.3382 20.1155 48.6129V47.52H14.3366V56.7929H19.0483C19.7607 56.7929 20.1155 56.4253 20.1155 55.7V54.6071H17.0893V53.2339H18.7705C19.4829 53.2339 19.8419 52.8663 19.8419 52.1353V51.0368H17.0893V49.7058H19.0483Z" fill="#283A97"/>
<path d="M29.1756 47.52H22.5148V48.6129C22.5148 49.3382 22.8867 49.7058 23.6261 49.7058H25.0153V56.8042H26.3945C27.3092 56.8042 27.768 56.4084 27.768 55.6085V49.7058H29.1756C29.9137 49.7058 30.2855 49.3382 30.2855 48.6129C30.2855 47.8876 29.9137 47.52 29.1756 47.52Z" fill="#283A97"/>
<path d="M48.5896 54.5367L47.3415 52.8466C48.2776 52.3269 48.7435 51.4663 48.7435 50.272C48.7435 49.6002 48.4913 48.9791 47.9827 48.3946C47.7496 48.1149 47.4558 47.8908 47.123 47.7389C46.7903 47.5869 46.4271 47.5112 46.0606 47.5172H41.574V56.7901H42.9475C43.867 56.7901 44.3267 56.3915 44.3267 55.5944V53.2761L46.4995 56.2141C46.8656 56.6366 47.2275 56.8479 47.5766 56.8577C47.9436 56.8611 48.2988 56.7302 48.5739 56.4901C48.717 56.3905 48.8359 56.2607 48.9221 56.1102C49.0083 55.9597 49.0597 55.7922 49.0726 55.6197C49.0926 55.2972 48.9287 54.9381 48.5896 54.5367ZM45.1203 51.503H44.3238V49.3819H45.1174C45.8939 49.3819 46.2829 49.7326 46.2829 50.4424C46.2829 51.1523 45.8911 51.503 45.1203 51.503Z" fill="#283A97"/>
<path d="M59.0688 48.5805C58.1427 47.6876 56.9502 47.2453 55.4898 47.2453C54.9767 47.2407 54.4651 47.3022 53.9681 47.4284C53.9069 47.4777 53.847 47.52 53.7872 47.5693C53.5607 47.7449 53.3677 47.959 53.2173 48.2016C53.0547 48.4564 52.9802 48.7564 53.005 49.0565C53.0167 49.1945 53.0554 49.3289 53.119 49.4523C53.1465 49.5045 53.1774 49.5548 53.2116 49.603L53.2942 49.7002L53.3541 49.7608C53.5027 49.9115 53.7006 50.0053 53.9126 50.0255C54.0315 50.0304 54.1502 50.0137 54.2631 49.9762C54.6322 49.7562 55.0575 49.6457 55.4884 49.6579C55.8 49.6451 56.1108 49.6994 56.3992 49.8171C56.6875 49.9348 56.9465 50.1131 57.1582 50.3396C57.5645 50.8208 57.787 51.4276 57.787 52.0543C57.787 52.6811 57.5645 53.2879 57.1582 53.7691C56.9468 53.9957 56.6882 54.1742 56.4001 54.2922C56.112 54.4101 55.8014 54.4647 55.4898 54.4522C55.1791 54.465 54.8693 54.4118 54.5812 54.2962C54.2932 54.1805 54.0336 54.0051 53.82 53.7818C53.3902 53.3136 53.1622 52.6981 53.1845 52.0663C53.1762 51.6364 53.274 51.211 53.4695 50.8269C53.1936 50.6879 52.9568 50.4837 52.7799 50.2326C52.7471 50.1833 52.73 50.1621 52.6873 50.0917L52.626 49.9776C52.5774 49.8783 52.5374 49.7751 52.5063 49.6692C52.4493 49.4668 52.4323 49.2554 52.4564 49.0467C52.5019 48.6574 52.6704 48.2922 52.938 48.0031C53.0615 47.8668 53.199 47.7436 53.3484 47.6355C52.809 47.8524 52.3181 48.1721 51.9036 48.5763C50.979 49.4692 50.5145 50.6269 50.5145 52.0607C50.5145 53.4944 50.979 54.6578 51.9093 55.5395C52.8397 56.4211 54.028 56.8704 55.4713 56.8704C56.9146 56.8704 58.1042 56.4268 59.0446 55.5395C59.985 54.6522 60.4509 53.4944 60.4509 52.0607C60.4509 50.6269 59.9963 49.4734 59.0688 48.5805Z" fill="#283A97"/>
<path d="M38.7672 48.4509C38.5335 48.1665 38.2379 47.9378 37.9024 47.782C37.5669 47.6262 37.2002 47.5472 36.8295 47.551H32.3415V56.7958H33.715C34.6354 56.7958 35.0951 56.3972 35.0941 55.6V49.3819H35.8835C36.66 49.3819 37.0546 49.7326 37.0546 50.4424C37.0546 50.9227 36.868 51.2368 36.5061 51.3945C36.3268 51.4589 36.1714 51.5755 36.0602 51.7288C35.9491 51.8821 35.8875 52.0651 35.8835 52.2536V53.693H36.4961C36.9031 53.7058 37.3079 53.6294 37.6816 53.4695C38.0552 53.3095 38.3885 53.0699 38.6575 52.7677C39.2038 52.171 39.5112 51.3978 39.5223 50.5931C39.5562 49.81 39.2861 49.0437 38.7672 48.4509Z" fill="#283A97"/>
<path d="M49.3291 15.8237C45.7557 9.88163 37.72 9.75065 34.2407 13.259C39.7275 9.25207 52.0034 12.7196 46.5166 23.6629C45.7208 22.9589 44.8363 22.3596 43.885 21.8799C44.1215 17.8152 42.3177 16.1476 42.3177 16.1476C42.2964 15.7617 41.7849 14.5364 41.6054 14.2984C41.4258 14.0604 41.0525 12.7492 41.0525 12.7492C40.7419 13.2055 39.9939 15.4477 39.9939 15.4477C39.9939 15.4477 39.1604 15.5378 38.5307 15.5561C37.9009 15.5744 37.7485 16.0322 37.5789 16.3941C37.4094 16.7561 36.8751 16.9899 36.422 17.0011C35.9689 17.0124 35.7096 17.3068 35.7339 17.449C35.7695 17.6222 35.9903 17.48 36.0388 17.387C36.0872 17.2941 36.3408 17.5842 36.3408 17.5842C36.147 17.5561 35.4033 17.8828 35.9404 18.5701C36.4776 19.2574 37.8397 18.794 37.8397 18.794C37.2698 19.6039 36.1656 19.0969 36.1656 19.0969C37.7129 21.0207 40.1207 20.1194 40.2561 20.0602C38.8612 21.3123 36.8808 20.5348 36.8808 20.5348C36.8808 20.5348 35.5672 23.015 35.7082 24.4122C35.7397 24.8677 35.842 25.3157 36.0117 25.7403C36.0231 25.7643 36.0331 25.7896 36.0459 25.8136C36.1043 25.9234 36.1613 26.0333 36.214 26.1431C36.2157 26.1472 36.2157 26.1517 36.214 26.1558C37.3168 28.3994 38.1873 29.7346 37.7813 32.5458C44.2155 31.1289 48.1992 27.4896 49.2507 25.7136C50.3406 23.877 51.8979 20.087 49.3291 15.8237ZM38.9282 17.1532C38.8213 17.3772 37.8425 17.6011 37.8425 17.6011L38.079 17.3406C37.8582 17.0251 38.3326 16.5589 38.3326 16.5589L38.1246 16.3195C38.1731 16.342 39.1049 16.7645 38.9225 17.1532H38.9282ZM39.9255 17.118C39.9255 17.118 40.8559 16.6955 40.8987 15.8786C40.9414 15.0618 40.7419 14.0477 40.9628 13.4055C40.9628 13.528 41.0255 14.4914 41.215 14.8392C41.4045 15.1871 41.7863 17.0673 39.9184 17.118H39.9255Z" fill="#32A4D5"/>
<path d="M36.0427 25.8087L35.9946 25.7164C35.9996 25.7212 36.0044 25.7264 36.0088 25.7318C36.0201 25.7597 36.03 25.7849 36.0427 25.8087Z" fill="#2B3990"/>
<path d="M33.0083 14.3505C33.0083 14.3505 32.9812 13.1759 32.9256 12.7632C32.8701 12.3506 32.1933 11.3548 32.1933 11.3548C33.4086 10.3084 33.4357 8.65631 33.4357 8.65631C33.1408 8.59012 32.6535 8.72251 32.256 8.85067C32.0159 9.60586 31.5106 10.2513 30.8312 10.6703C31.6896 9.69375 32.1206 8.42019 32.0294 7.1296C30.76 7.35494 28.4675 7.50564 28.7097 10.3365C28.7097 10.3365 28.4419 10.0929 28.4105 9.23658C25.0067 10.5041 23.8313 13.6308 23.8313 13.6308C24.0094 14.7829 27.369 16.9885 28.2239 17.5307C26.3288 16.7928 24.5688 15.7533 23.0135 14.4533C23.0135 14.4533 21.5616 15.3096 21.1285 16.6124C20.6954 17.9152 20.1141 18.1927 19.1181 18.6786C18.6665 18.8997 17.7105 19.5532 16.7587 20.6081C15.673 13.0703 23.7814 10.9943 23.7814 10.9943C21.11 11.145 17.179 12.5576 15.1858 16.9561C13.5288 20.6179 14.821 23.4348 14.8737 23.5545C17.9954 30.8909 21.9506 33.2725 21.9506 33.2725C22.8354 32.9979 24.0008 31.8317 23.6261 29.5008C23.1873 26.7713 19.0056 25.4854 19.0056 25.4854C23.2058 25.1629 24.5323 28.6881 24.5323 28.6881C27.2707 26.8501 29.2013 23.8601 29.5275 22.8939C29.8538 21.9278 29.6173 19.0025 29.3851 17.9729C29.245 17.3683 29.3526 16.7334 29.6843 16.2068C30.0314 16.8315 30.6117 17.2974 31.3014 17.5054C31.4932 17.5588 31.692 17.5839 31.8912 17.58C30.921 16.8758 30.8369 15.5223 30.8369 15.5223C31.176 16.1674 31.6277 16.8561 31.944 17.1082C32.1231 17.247 32.337 17.3352 32.5628 17.3632C32.7887 17.3912 33.018 17.3581 33.2263 17.2673C33.4099 17.1888 33.5863 17.0945 33.7534 16.9856C33.2704 16.7293 33.4499 16.0983 33.4499 16.0983C33.4499 16.0983 33.7178 17.3039 34.6567 16.5885C34.3974 15.4772 33.0083 14.3505 33.0083 14.3505ZM30.4878 10.3365L30.2114 10.0549C31.0734 9.64361 31.1988 8.13802 31.1988 8.13802C31.4524 9.42108 30.4878 10.3365 30.4878 10.3365ZM32.0337 13.435C31.9499 13.4086 31.8648 13.3865 31.7787 13.3689C31.6921 13.3485 31.6039 13.3353 31.5151 13.3294C31.4297 13.3135 31.3425 13.3087 31.2558 13.3153C31.1675 13.3252 31.082 13.3294 31.0065 13.3421C30.9309 13.3548 30.864 13.3689 30.8056 13.3773C30.7471 13.3858 30.7244 13.3773 30.7244 13.3773L30.7642 13.3069C30.8004 13.2437 30.8489 13.1882 30.9067 13.1435C30.94 13.1061 30.9808 13.0759 31.0264 13.0548C31.0736 13.0244 31.125 13.0006 31.1789 12.9844C31.238 12.9628 31.2998 12.9495 31.3627 12.9449C31.426 12.9365 31.4902 12.9365 31.5536 12.9449C31.7856 12.9705 32.0003 13.0786 32.1577 13.2491C32.2236 13.3248 32.2722 13.4137 32.3002 13.5097L32.0337 13.435Z" fill="#32A4D5"/>
<path d="M50.9049 18.7138C50.5937 17.3991 50.0211 16.1588 49.2205 15.0649C48.4199 13.9711 47.4073 13.0455 46.2414 12.3421C45.0756 11.6387 43.7799 11.1715 42.4298 10.9676C41.0796 10.7638 39.7019 10.8274 38.3768 11.1548C37.5617 11.3595 36.7755 11.6633 36.0359 12.059C35.5618 12.3114 35.1095 12.6021 34.6838 12.928C34.3903 13.1534 34.2407 13.2829 34.2407 13.2829C34.2407 13.2829 34.3946 13.159 34.6966 12.9449C35.1317 12.6358 35.5921 12.363 36.073 12.1294C37.787 11.2924 39.7084 10.9599 41.6082 11.1717C42.9291 11.3168 44.2067 11.7245 45.3641 12.3702C46.5215 13.016 47.5348 13.8865 48.3431 14.9294C49.2482 16.0895 49.8717 17.4397 50.1654 18.8757C50.3167 19.6061 50.3779 20.3519 50.3478 21.0968C50.3001 21.8362 50.1427 22.5646 49.8804 23.2587C49.3675 24.6756 48.564 25.9995 47.6891 27.2361C46.8144 28.446 45.8676 29.6034 44.8538 30.7021C44.5176 31.0669 44.1813 31.4064 43.8451 31.7613C40.6679 32.9683 38.6917 33.4035 37.4963 33.5556C36.5873 35.5626 34.3262 36.6611 33.5768 36.9865V42.9229C33.5768 42.9229 34.7736 42.1117 35.8464 41.2328C36.9193 40.354 38.4181 39.0413 40.1606 37.4118C42.157 35.5607 44.0469 33.6004 45.8213 31.5402C46.8251 30.3695 47.7567 29.14 48.611 27.8586C49.4658 26.5375 50.268 25.1192 50.7695 23.5587C51.0292 22.7721 51.1708 21.9522 51.1898 21.125C51.1933 20.3128 51.0976 19.5032 50.9049 18.7138Z" fill="#283A97"/>
<path d="M31.3669 40.699V36.9541C25.7875 34.3119 26.5142 30.4134 29.0488 25.7107C29.0488 25.7107 27.3576 28.067 24.7617 29.6332C24.7617 29.6332 25.2404 32.4824 23.3654 34.0316C22.8083 33.519 22.2441 32.9936 21.677 32.4373C19.9075 30.6937 18.108 28.7318 16.6832 26.5347C15.9686 25.4578 15.4032 24.2911 15.002 23.0658C14.6375 21.8803 14.5431 20.6297 14.7256 19.4039C14.8869 18.2445 15.2605 17.1239 15.8283 16.0969C16.4733 14.9303 17.3503 13.9047 18.4066 13.0818C19.4629 12.2589 20.6766 11.6556 21.9748 11.3083C22.4149 11.1913 22.8623 11.1033 23.3141 11.045L23.7957 10.9943L23.3113 11.0224C22.8552 11.0605 22.4021 11.1277 21.9549 11.2238C20.337 11.5755 18.8309 12.3134 17.568 13.3731C16.7203 14.0838 15.993 14.9239 15.4137 15.8617C14.7636 16.9203 14.3146 18.0873 14.0887 19.3053C13.8301 20.6225 13.8739 21.9802 14.2169 23.2784C14.5862 24.5977 15.133 25.862 15.8426 27.0375C17.2375 29.3951 19.0027 31.481 20.7338 33.3373C22.4649 35.1936 24.1989 36.8118 25.7006 38.1695C27.2023 39.5272 28.4803 40.6258 29.3637 41.3934C30.2471 42.161 31.3584 42.9229 31.3584 42.9229V40.699H31.3669Z" fill="#283A97"/>
<path d="M32.511 36.4611C32.511 36.4611 27.7964 33.9415 29.3081 31.4796C30.371 29.736 32.511 31.7092 32.511 31.7092C32.511 31.7092 34.6482 29.7374 35.7182 31.4796C37.2199 33.9415 32.511 36.4611 32.511 36.4611Z" fill="#D51C29"/>
<path d="M58.9591 12.228C58.966 12.6384 58.8878 13.0458 58.7292 13.4252C58.5707 13.8045 58.3352 14.1477 58.0373 14.4336C57.7447 14.7234 57.3971 14.9534 57.0145 15.1103C56.6319 15.2672 56.2217 15.3479 55.8075 15.3479C55.3933 15.3479 54.9831 15.2672 54.6005 15.1103C54.2179 14.9534 53.8703 14.7234 53.5777 14.4336C53.2792 14.1481 53.0431 13.805 52.884 13.4256C52.7249 13.0462 52.6463 12.6386 52.6531 12.228C52.6475 11.817 52.7274 11.4091 52.8876 11.0298C53.0479 10.6504 53.2852 10.3076 53.5849 10.0225C53.8775 9.73264 54.225 9.50269 54.6076 9.34581C54.9902 9.18892 55.4004 9.10816 55.8146 9.10816C56.2289 9.10816 56.639 9.18892 57.0216 9.34581C57.4042 9.50269 57.7518 9.73264 58.0444 10.0225C58.3408 10.3091 58.5749 10.6526 58.7322 11.0319C58.8895 11.4111 58.9667 11.8182 58.9591 12.228ZM58.6086 12.228C58.6142 11.8635 58.5445 11.5018 58.4036 11.1649C58.2627 10.828 58.0537 10.5231 57.7894 10.2689C57.5292 10.0113 57.2202 9.80683 56.88 9.66734C56.5398 9.52786 56.1751 9.45606 55.8068 9.45606C55.4385 9.45606 55.0738 9.52786 54.7336 9.66734C54.3934 9.80683 54.0844 10.0113 53.8242 10.2689C53.5596 10.523 53.3503 10.8278 53.2092 11.1647C53.0681 11.5016 52.9981 11.8634 53.0036 12.228C52.9981 12.5926 53.0681 12.9545 53.2092 13.2914C53.3503 13.6283 53.5596 13.9331 53.8242 14.1871C54.0842 14.4452 54.3932 14.6499 54.7334 14.7896C55.0736 14.9293 55.4384 15.0012 55.8068 15.0012C56.1752 15.0012 56.54 14.9293 56.8802 14.7896C57.2204 14.6499 57.5294 14.4452 57.7894 14.1871C58.0537 13.933 58.2627 13.6281 58.4036 13.2912C58.5445 12.9543 58.6142 12.5925 58.6086 12.228ZM54.3557 10.4098H55.9685C56.3575 10.4098 56.6481 10.4901 56.8419 10.6534C56.9336 10.7249 57.0076 10.816 57.0582 10.92C57.1088 11.024 57.1347 11.138 57.134 11.2534C57.1376 11.4553 57.0608 11.6505 56.9203 11.7971C56.7286 11.9707 56.4881 12.0827 56.2307 12.1182L57.1283 13.2562C57.2091 13.3655 57.3051 13.4632 57.4132 13.5463C57.4817 13.5838 57.5575 13.6064 57.6355 13.6125V13.7533H56.8804L55.6266 12.1886H55.2946V13.0548C55.2946 13.2886 55.3217 13.4365 55.3772 13.4998C55.4738 13.5784 55.5973 13.6172 55.722 13.6083V13.7491H54.3186V13.6083C54.4449 13.6145 54.5688 13.5727 54.6648 13.4914C54.7355 13.3622 54.7648 13.2149 54.7489 13.0689V11.0633C54.7628 10.9278 54.7334 10.7913 54.6648 10.6732C54.5827 10.5944 54.473 10.55 54.3585 10.5492L54.3557 10.4098ZM55.2946 11.9773C55.3957 11.9773 55.4713 11.9872 55.5211 11.9872C55.8669 11.9872 56.1191 11.9224 56.2777 11.7928C56.354 11.7316 56.415 11.6536 56.4558 11.5652C56.4966 11.4767 56.5161 11.3801 56.5128 11.283C56.5146 11.1913 56.4971 11.1002 56.4612 11.0155C56.4254 10.9309 56.3721 10.8546 56.3048 10.7915C56.1448 10.6527 55.9359 10.5819 55.7234 10.5943C55.5777 10.5985 55.4335 10.6251 55.296 10.6732L55.2946 11.9773Z" fill="#283A97"/>
</svg>
