<svg width="16" height="13" viewBox="0 0 16 13" fill="none" xmlns="http://www.w3.org/2000/svg">
<path d="M15.6875 4.64478C14.9375 5.23853 13.3125 6.42603 10.875 8.17603L10.5625 8.42603C10.0625 8.80103 9.6875 9.08228 9.375 9.23853C8.875 9.55103 8.40625 9.67603 8 9.67603C7.5625 9.67603 7.125 9.55103 6.625 9.26978C6.3125 9.11353 5.9375 8.83228 5.4375 8.45728L5.125 8.17603C2.59375 6.36353 1 5.17603 0.3125 4.64478C0.25 4.61353 0.15625 4.61353 0.09375 4.64478C0.03125 4.67603 0 4.73853 0 4.80103V11.176C0 11.6135 0.125 11.9573 0.4375 12.2385C0.71875 12.551 1.0625 12.676 1.5 12.676H14.5C14.9062 12.676 15.25 12.551 15.5625 12.2385C15.8438 11.9573 16 11.6135 16 11.176V4.80103C16 4.73853 15.9375 4.67603 15.875 4.61353C15.8125 4.58228 15.75 4.58228 15.6875 4.64478ZM8 8.67603C7.71875 8.67603 7.375 8.55103 7 8.30103C6.75 8.17603 6.4375 7.95728 6.03125 7.61353L5.71875 7.39478C3.15625 5.51978 1.40625 4.23853 0.5 3.51978L0.28125 3.36353C0.09375 3.23853 0 3.01978 0 2.76978V2.17603C0 1.76978 0.125 1.42603 0.4375 1.11353C0.71875 0.832283 1.0625 0.676033 1.5 0.676033H14.5C14.9062 0.676033 15.25 0.832283 15.5625 1.11353C15.8438 1.42603 16 1.76978 16 2.17603V2.76978C16 3.01978 15.9062 3.23853 15.7188 3.36353L15.5625 3.48853C14.6562 4.20728 12.9062 5.51978 10.2812 7.39478L9.96875 7.61353C9.53125 7.95728 9.21875 8.17603 9 8.30103C8.59375 8.55103 8.25 8.67603 8 8.67603Z" fill="#EFEFEF"/>
</svg>
