<svg width="17" height="17" viewBox="0 0 17 17" fill="none" xmlns="http://www.w3.org/2000/svg">
<path d="M16.4062 1.45728C16.5938 1.48853 16.7188 1.58228 16.8438 1.70728C16.9375 1.86353 17 2.01978 17 2.17603C17 4.80103 16.3438 7.23853 15.0312 9.48853C13.7188 11.676 12 13.426 9.8125 14.7073C7.5625 16.0198 5.125 16.676 2.5 16.676C2.3125 16.676 2.15625 16.6448 2.03125 16.5198C1.875 16.426 1.78125 16.2698 1.78125 16.0823L1.03125 12.8323C0.96875 12.676 1 12.5198 1.09375 12.3323C1.15625 12.176 1.28125 12.051 1.46875 11.9885L4.96875 10.4885C5.09375 10.426 5.25 10.426 5.4375 10.4573C5.59375 10.4885 5.71875 10.5823 5.84375 10.7073L7.375 12.5823C8.59375 12.0198 9.6875 11.2698 10.625 10.301C11.5625 9.36353 12.3438 8.26978 12.9062 7.05103L11.0312 5.48853C10.9062 5.39478 10.8125 5.26978 10.7812 5.11353C10.7188 4.95728 10.75 4.80103 10.8125 4.61353L12.3125 1.11353C12.375 0.988533 12.4688 0.863533 12.6562 0.769783C12.8125 0.707283 12.9688 0.676033 13.1562 0.707283L16.4062 1.45728Z" fill="#EFEFEF"/>
</svg>
