<svg width="25" height="24" viewBox="0 0 25 24" fill="none" xmlns="http://www.w3.org/2000/svg">
<circle cx="12.0723" cy="12" r="12" fill="white"/>
<path fill-rule="evenodd" clip-rule="evenodd" d="M15.2155 12.6611C15.2157 12.437 15.2158 12.2129 15.2158 11.9888L15.2176 11.9881V9.18555C15.2176 9.17485 15.2184 9.16366 15.2192 9.15244C15.2234 9.09716 15.2276 9.04145 15.124 9.04346C14.8471 9.04832 14.5699 9.04624 14.2926 9.04346C14.2175 9.04242 14.1965 9.07119 14.1965 9.1405C14.1982 9.24105 14.1976 9.34129 14.1971 9.44132C14.1968 9.49127 14.1965 9.54116 14.1965 9.59101V14.4922C14.1965 14.7913 14.3197 14.9112 14.6236 14.9139C14.6782 14.9147 14.7329 14.9139 14.7876 14.913C14.877 14.9116 14.9663 14.9102 15.0546 14.916C15.1792 14.9247 15.219 14.8907 15.219 14.7611C15.2145 14.0615 15.215 13.3613 15.2155 12.6611ZM6.78006 10.109C6.84262 10.1073 6.90812 10.1055 6.98419 10.1351L6.97992 10.1347C6.94326 10.1843 6.91728 10.219 6.8888 10.2536C5.87757 11.4871 4.86183 12.7169 3.84158 13.9429C3.64812 14.1657 3.54664 14.4505 3.55686 14.7421C3.5597 14.8765 3.59245 14.9174 3.73481 14.9174C4.82427 14.9134 5.91374 14.9137 7.00338 14.9141H7.00342H7.00346L7.93765 14.9143L7.94789 14.9143C7.98545 14.9143 8.02324 14.9144 8.06043 14.9112C8.31383 14.8883 8.46118 14.74 8.47292 14.4915C8.47464 14.4454 8.47365 14.3991 8.47267 14.3528V14.3528V14.3528C8.4712 14.2839 8.46974 14.215 8.47719 14.147C8.49463 14.0057 8.4384 13.9738 8.29924 13.9738C7.55029 13.9776 6.80021 13.9769 6.04983 13.9763H6.0497H6.04957L6.04797 13.9763C5.76702 13.9761 5.48603 13.9759 5.20504 13.9759C5.19362 13.9759 5.18202 13.9766 5.17021 13.9773L5.17019 13.9773C5.1268 13.9801 5.08056 13.983 5.02993 13.9506C5.04091 13.9361 5.05156 13.9218 5.06206 13.9077C5.08425 13.8779 5.10581 13.8489 5.12852 13.8209C5.41537 13.4686 5.70223 13.1165 5.98909 12.7647C6.1867 12.5222 6.3839 12.2794 6.58108 12.0367C7.1062 11.3902 7.63125 10.7437 8.164 10.1036C8.38466 9.83845 8.47506 9.54908 8.47719 9.21917C8.4779 9.13427 8.45015 9.10793 8.36295 9.10793C6.84894 9.11047 5.33518 9.11047 3.82165 9.10793C3.72555 9.10758 3.69886 9.13842 3.701 9.22818C3.70776 9.46799 3.7131 9.70814 3.701 9.94761C3.69601 10.0835 3.74121 10.1122 3.87396 10.1122C4.57578 10.1081 5.2774 10.1087 5.97911 10.1094C6.23179 10.1096 6.48448 10.1098 6.73719 10.1098C6.75139 10.1098 6.76565 10.1094 6.78006 10.109ZM12.4091 14.5124C11.8475 14.872 11.2418 15.019 10.5777 14.8769C10.04 14.7662 9.56118 14.471 9.22846 14.0452C8.57111 13.2277 8.58001 12.0699 9.26156 11.2402C9.62633 10.7849 10.1615 10.4888 10.7499 10.4168C11.35 10.3354 11.8988 10.4778 12.3978 10.8064C12.4027 10.8009 12.4073 10.7966 12.4112 10.7929C12.4179 10.7866 12.4224 10.7823 12.4227 10.7779C12.4387 10.5198 12.4387 10.5198 12.7074 10.5198C12.7599 10.5198 12.8125 10.5206 12.8651 10.5213C12.9873 10.5232 13.1095 10.525 13.2309 10.517C13.3601 10.5083 13.3818 10.5582 13.3815 10.6705C13.3784 11.4323 13.3786 12.1939 13.3789 12.9556L13.379 13.5645C13.379 13.6685 13.3788 13.7724 13.3786 13.8764L13.3786 13.8778V13.8779V13.878C13.3781 14.1782 13.3775 14.4782 13.3815 14.7774C13.3815 14.8814 13.3509 14.9219 13.2427 14.914C13.1827 14.9095 13.1224 14.9105 13.0621 14.9116H13.0621H13.062C13.0247 14.9122 12.9874 14.9129 12.9501 14.9122C12.616 14.9122 12.5001 14.8267 12.4091 14.5124ZM9.93318 13.3947C9.78262 13.1771 9.70173 12.921 9.70074 12.6586C9.70063 12.3078 9.84288 11.9711 10.0965 11.7218C10.3501 11.4726 10.6946 11.331 11.0549 11.3279C11.3244 11.3265 11.5882 11.4029 11.813 11.5475C12.0378 11.6921 12.2134 11.8984 12.3178 12.1402C12.4222 12.3821 12.4505 12.6487 12.3992 12.9062C12.3479 13.1637 12.2193 13.4007 12.0297 13.587C11.84 13.7734 11.5979 13.9007 11.3339 13.953C11.0699 14.0053 10.7958 13.9802 10.5465 13.8808C10.2972 13.7814 10.0837 13.6122 9.93318 13.3947ZM18.2392 10.3673C19.529 10.3673 20.585 11.3979 20.5882 12.6607C20.5873 13.2701 20.338 13.8543 19.895 14.2848C19.452 14.7153 18.8516 14.9569 18.2257 14.9566C16.9523 14.9566 15.8924 13.9152 15.891 12.6624C15.891 11.4045 16.9502 10.3676 18.2399 10.3669L18.2392 10.3673ZM19.6155 12.6631C19.6147 12.3984 19.5334 12.1398 19.3818 11.9201C19.2302 11.7003 19.0151 11.5293 18.7637 11.4284C18.5123 11.3276 18.2359 11.3016 17.9693 11.3537C17.7028 11.4058 17.458 11.5336 17.266 11.7211C17.074 11.9085 16.9434 12.1471 16.8906 12.4068C16.8378 12.6665 16.8652 12.9356 16.9694 13.1802C17.0735 13.4247 17.2498 13.6337 17.4759 13.7807C17.7019 13.9278 17.9677 14.0063 18.2396 14.0063C18.421 14.0079 18.601 13.9742 18.7689 13.9073C18.9368 13.8403 19.0892 13.7413 19.2174 13.6162C19.3455 13.4911 19.4467 13.3424 19.5151 13.1788C19.5835 13.0151 19.6176 12.8398 19.6155 12.6631Z" fill="#0066DE"/>
</svg>
